<?xml version="1.0" encoding="UTF-8" standalone="no"?>
<!DOCTYPE svg PUBLIC "-//W3C//DTD SVG 1.1//EN" "http://www.w3.org/Graphics/SVG/1.1/DTD/svg11.dtd">
<svg width="100%" height="100%" viewBox="0 0 32 32" version="1.1" xmlns="http://www.w3.org/2000/svg" xmlns:xlink="http://www.w3.org/1999/xlink" xml:space="preserve" xmlns:serif="http://www.serif.com/" style="fill-rule:evenodd;clip-rule:evenodd;stroke-linejoin:round;stroke-miterlimit:2;">
    <g transform="matrix(1,0,0,1,-160,-32)">
        <g id="addItem" transform="matrix(1.01943,0,0,1.08702,160,32)">
            <rect x="0" y="0" width="31.39" height="29.438" style="fill:none;"/>
            <g transform="matrix(0.98094,0,0,0.919949,-94.1703,0)">
                <path d="M119,9L126,9L126,13L119,13L119,20L115,20L115,13L108,13L108,9L115,9L115,2L119,2L119,9Z" style="fill:rgb(203,203,203);"/>
            </g>
            <g transform="matrix(0.98094,0,0,0.919949,-156.95,-29.4384)">
                <path d="M178,54L182,58L182,62L178,62L168,52L166,54L164,52L166,50L166,48L162,44L164,42L168,46L170,46C170,46 170,47 170,47L173,47L172,48L177,53L177,54L178,54Z" style="fill:rgb(45,105,223);"/>
            </g>
        </g>
    </g>
</svg>
