<?xml version="1.0" encoding="UTF-8" standalone="no"?>
<!DOCTYPE svg PUBLIC "-//W3C//DTD SVG 1.1//EN" "http://www.w3.org/Graphics/SVG/1.1/DTD/svg11.dtd">
<svg width="100%" height="100%" viewBox="0 0 32 32" version="1.1" xmlns="http://www.w3.org/2000/svg" xmlns:xlink="http://www.w3.org/1999/xlink" xml:space="preserve" xmlns:serif="http://www.serif.com/" style="fill-rule:evenodd;clip-rule:evenodd;stroke-linejoin:round;stroke-miterlimit:2;">
    <g transform="matrix(1,0,0,1,-32,0)">
        <g id="drawTile" transform="matrix(1.01943,0,0,1.08702,32,0)">
            <rect x="0" y="0" width="31.39" height="29.438" style="fill:none;"/>
            <g transform="matrix(0.69363,0.650502,-0.69363,0.650502,-3.86601,-29.3842)">
                <path d="M48,28L44,24L44,4L52,4L52,24L48,28Z" style="fill:rgb(203,203,203);"/>
            </g>
            <g transform="matrix(0.98094,0,0,0.919949,-31.3901,0)">
                <path d="M40.201,23.799L46,23.799L46,30L34,30L34,18L40.201,18L40.201,23.799Z" style="fill:rgb(45,105,223);"/>
            </g>
            <g transform="matrix(0.98094,0,0,0.919949,-31.3901,0)">
                <path d="M54.485,18L60,18L60,30L48,30L48,23.799L48.686,23.799L54.485,18Z" style="fill:rgb(45,105,223);"/>
            </g>
            <g transform="matrix(0.98094,0,0,0.919949,-31.3901,0)">
                <path d="M46,9.515L40.201,15.314L40.201,16L34,16L34,4L46,4L46,9.515Z" style="fill:rgb(45,105,223);"/>
            </g>
        </g>
    </g>
</svg>
