<?xml version="1.0" encoding="UTF-8" standalone="no"?>
<!DOCTYPE svg PUBLIC "-//W3C//DTD SVG 1.1//EN" "http://www.w3.org/Graphics/SVG/1.1/DTD/svg11.dtd">
<svg width="100%" height="100%" viewBox="0 0 32 32" version="1.1" xmlns="http://www.w3.org/2000/svg" xmlns:xlink="http://www.w3.org/1999/xlink" xml:space="preserve" xmlns:serif="http://www.serif.com/" style="fill-rule:evenodd;clip-rule:evenodd;stroke-linejoin:round;stroke-miterlimit:2;">
    <g id="setSpawnPoint" transform="matrix(1.01943,0,0,1.08702,0,0)">
        <rect x="0" y="0" width="31.39" height="29.438" style="fill:none;"/>
        <g transform="matrix(0.98094,0,0,0.919949,0,0)">
            <path d="M8,14L8,12L10.055,12C10.516,7.831 13.831,4.517 18,4.055L18,2L20,2L20,4.055C24.169,4.516 27.483,7.831 27.945,12L30,12L30,14L27.945,14C27.484,18.169 24.169,21.483 20,21.945L20,24L18,24L18,21.945C13.831,21.484 10.517,18.169 10.055,14L8,14ZM16.415,12L16.415,14L12.071,14C12.51,17.064 14.937,19.49 18,19.929L18,15.585L20,15.585L20,19.929C23.064,19.49 25.49,17.063 25.929,14L21.585,14L21.585,12L25.929,12C25.49,8.936 23.063,6.51 20,6.071L20,10.415L18,10.415L18,6.071C14.936,6.51 12.51,8.937 12.071,12L16.415,12Z" style="fill:rgb(203,203,203);"/>
        </g>
        <g transform="matrix(0.98094,0,0,0.919949,0,0)">
            <path d="M10.518,20C11.921,21.698 13.824,22.968 16,23.584L16,30L2,30L2,20L10.518,20ZM6,11.001L6,16L8.416,16C8.814,17.404 9.484,18.695 10.366,19.811C9.931,19.934 9.473,20 9,20C6.24,20 4,17.76 4,15C4,13.366 4.786,11.914 6,11.001Z" style="fill:rgb(45,105,223);"/>
        </g>
    </g>
</svg>
